<svg viewBox="0 0 80 80" xmlns="http://www.w3.org/2000/svg">
  <!-- Genealogy Scroll -->
  <path d="M25 20 Q20 20 20 25 L20 55 Q20 60 25 60" stroke="currentColor" stroke-width="1.5" fill="none"/>
  <path d="M55 20 Q60 20 60 25 L60 55 Q60 60 55 60" stroke="currentColor" stroke-width="1.5" fill="none"/>
  <line x1="25" y1="20" x2="55" y2="20" stroke="currentColor" stroke-width="1.5"/>
  <line x1="25" y1="60" x2="55" y2="60" stroke="currentColor" stroke-width="1.5"/>
  <circle cx="40" cy="30" r="3" stroke="currentColor" stroke-width="1.5" fill="none"/>
  <line x1="40" y1="33" x2="40" y2="38" stroke="currentColor" stroke-width="1.5"/>
  <line x1="40" y1="38" x2="33" y2="42" stroke="currentColor" stroke-width="1.5"/>
  <line x1="40" y1="38" x2="47" y2="42" stroke="currentColor" stroke-width="1.5"/>
  <circle cx="33" cy="45" r="2.5" stroke="currentColor" stroke-width="1.5" fill="none"/>
  <circle cx="47" cy="45" r="2.5" stroke="currentColor" stroke-width="1.5" fill="none"/>
  <line x1="33" y1="47.5" x2="28" y2="52" stroke="currentColor" stroke-width="1.5"/>
  <line x1="33" y1="47.5" x2="38" y2="52" stroke="currentColor" stroke-width="1.5"/>
  <circle cx="28" cy="54" r="2" stroke="currentColor" stroke-width="1.5" fill="none"/>
  <circle cx="38" cy="54" r="2" stroke="currentColor" stroke-width="1.5" fill="none"/>
</svg>