<svg viewBox="0 0 80 80" xmlns="http://www.w3.org/2000/svg">
  <!-- Clay Jar -->
  <path d="M32 30 L32 28 Q32 24 36 24 L44 24 Q48 24 48 28 L48 30" stroke="currentColor" stroke-width="1.5" fill="none"/>
  <path d="M32 30 Q28 33 28 38 L28 52 Q28 58 34 60 L46 60 Q52 58 52 52 L52 38 Q52 33 48 30" stroke="currentColor" stroke-width="1.5" fill="none"/>
  <ellipse cx="40" cy="60" rx="12" ry="3" stroke="currentColor" stroke-width="1.5" fill="none"/>
  <path d="M28 42 Q32 40 40 40 Q48 40 52 42" stroke="currentColor" stroke-width="1.5" fill="none"/>
  <path d="M40 24 Q38 19 40 14 Q39 16 40 12 Q41 16 40 14 Q42 19 40 24" stroke="currentColor" stroke-width="1.5" fill="none"/>
</svg>