<svg viewBox="0 0 80 80" xmlns="http://www.w3.org/2000/svg">
  <!-- Chariot of Fire -->
  <circle cx="30" cy="55" r="8" stroke="currentColor" stroke-width="1.5" fill="none"/>
  <circle cx="50" cy="55" r="8" stroke="currentColor" stroke-width="1.5" fill="none"/>
  <path d="M20 45 L25 35 L55 35 L60 45 L20 45" stroke="currentColor" stroke-width="1.5" fill="none" stroke-linejoin="round"/>
  <line x1="30" y1="35" x2="30" y2="47" stroke="currentColor" stroke-width="1.5"/>
  <line x1="50" y1="35" x2="50" y2="47" stroke="currentColor" stroke-width="1.5"/>
  <path d="M32 28 Q28 23 30 18 Q29 20 30 16 Q31 19 32 14 Q33 19 34 16 Q35 20 34 18 Q36 23 32 28" stroke="currentColor" stroke-width="1.5" fill="none"/>
  <path d="M48 28 Q44 23 46 18 Q45 20 46 16 Q47 19 48 14 Q49 19 50 16 Q51 20 50 18 Q52 23 48 28" stroke="currentColor" stroke-width="1.5" fill="none"/>
</svg>