<svg viewBox="0 0 80 80" xmlns="http://www.w3.org/2000/svg">
  <!-- Crown and Harp -->
  <path d="M30 28 L25 38 L35 38 Z" stroke="currentColor" stroke-width="1.5" fill="none" stroke-linejoin="round"/>
  <path d="M30 28 L30 38" stroke="currentColor" stroke-width="1.5" fill="none"/>
  <path d="M35 28 L40 38 L30 38 Z" stroke="currentColor" stroke-width="1.5" fill="none" stroke-linejoin="round"/>
  <path d="M35 28 L35 38" stroke="currentColor" stroke-width="1.5" fill="none"/>
  <path d="M40 28 L45 38 L35 38 Z" stroke="currentColor" stroke-width="1.5" fill="none" stroke-linejoin="round"/>
  <path d="M40 28 L40 38" stroke="currentColor" stroke-width="1.5" fill="none"/>
  <line x1="24" y1="38" x2="46" y2="38" stroke="currentColor" stroke-width="1.5" stroke-linecap="round"/>
  <path d="M50 48 Q48 45 50 42 L50 60 Q50 65 55 65 Q60 65 60 60 L60 42" stroke="currentColor" stroke-width="1.5" fill="none"/>
  <line x1="52" y1="48" x2="52" y2="62" stroke="currentColor" stroke-width="1.5"/>
  <line x1="54" y1="50" x2="54" y2="62" stroke="currentColor" stroke-width="1.5"/>
  <line x1="56" y1="51" x2="56" y2="62" stroke="currentColor" stroke-width="1.5"/>
  <line x1="58" y1="52" x2="58" y2="62" stroke="currentColor" stroke-width="1.5"/>
</svg>