<svg viewBox="0 0 80 80" xmlns="http://www.w3.org/2000/svg">
  <!-- Flame (Pentecost) -->
  <path d="M40 55 Q35 48 38 40 Q36 42 37 35 Q39 40 40 30 Q41 40 43 35 Q44 42 42 40 Q45 48 40 55" stroke="currentColor" stroke-width="1.5" fill="none"/>
  <path d="M30 50 Q27 45 29 38 Q28 40 29 35 Q30 38 30 32 Q31 38 32 35 Q33 40 32 38 Q34 45 30 50" stroke="currentColor" stroke-width="1.5" fill="none"/>
  <path d="M50 50 Q47 45 49 38 Q48 40 49 35 Q50 38 50 32 Q51 38 52 35 Q53 40 52 38 Q54 45 50 50" stroke="currentColor" stroke-width="1.5" fill="none"/>
  <path d="M22 45 Q20 41 22 36 Q21 37 22 33 Q23 36 23 30 Q24 36 25 33 Q26 37 25 36 Q26 41 22 45" stroke="currentColor" stroke-width="1.5" fill="none"/>
  <path d="M58 45 Q56 41 58 36 Q57 37 58 33 Q59 36 59 30 Q60 36 61 33 Q62 37 61 36 Q62 41 58 45" stroke="currentColor" stroke-width="1.5" fill="none"/>
</svg>