<svg viewBox="0 0 80 80" xmlns="http://www.w3.org/2000/svg">
  <!-- Sun and Moon Cycle -->
  <circle cx="32" cy="35" r="12" stroke="currentColor" stroke-width="1.5" fill="none"/>
  <line x1="32" y1="18" x2="32" y2="22" stroke="currentColor" stroke-width="1.5" stroke-linecap="round"/>
  <line x1="32" y1="48" x2="32" y2="52" stroke="currentColor" stroke-width="1.5" stroke-linecap="round"/>
  <line x1="15" y1="35" x2="19" y2="35" stroke="currentColor" stroke-width="1.5" stroke-linecap="round"/>
  <line x1="45" y1="35" x2="49" y2="35" stroke="currentColor" stroke-width="1.5" stroke-linecap="round"/>
  <path d="M48 50 Q48 42 54 42 Q60 42 60 50 Q60 58 54 58 Q48 58 48 50" stroke="currentColor" stroke-width="1.5" fill="none"/>
  <path d="M54 42 Q58 42 58 46 Q58 50 54 50" stroke="currentColor" stroke-width="1.5" fill="none"/>
  <path d="M25 55 Q30 50 35 55 L40 60 L35 65 Q30 70 25 65 L20 60 Z" stroke="currentColor" stroke-width="1.5" fill="none" stroke-linejoin="round"/>
</svg>