<svg viewBox="0 0 80 80" xmlns="http://www.w3.org/2000/svg">
  <!-- Parted Sea Waves -->
  <path d="M15 40 L15 25 Q20 20 25 25 L25 40" stroke="currentColor" stroke-width="1.5" fill="none" stroke-linecap="round"/>
  <path d="M55 40 L55 25 Q60 20 65 25 L65 40" stroke="currentColor" stroke-width="1.5" fill="none" stroke-linecap="round"/>
  <path d="M10 50 Q15 47 20 50 Q25 53 30 50" stroke="currentColor" stroke-width="1.5" fill="none"/>
  <path d="M50 50 Q55 47 60 50 Q65 53 70 50" stroke="currentColor" stroke-width="1.5" fill="none"/>
  <path d="M10 60 Q15 57 20 60 Q25 63 30 60" stroke="currentColor" stroke-width="1.5" fill="none"/>
  <path d="M50 60 Q55 57 60 60 Q65 63 70 60" stroke="currentColor" stroke-width="1.5" fill="none"/>
  <line x1="32" y1="20" x2="48" y2="20" stroke="currentColor" stroke-width="1.5" stroke-linecap="round"/>
</svg>