<svg viewBox="0 0 80 80" xmlns="http://www.w3.org/2000/svg">
  <!-- Burning Coal/Lips -->
  <path d="M25 45 Q25 40 30 40 L50 40 Q55 40 55 45 Q55 50 50 50 L30 50 Q25 50 25 45" stroke="currentColor" stroke-width="1.5" fill="none"/>
  <path d="M30 45 Q35 42 40 45 Q45 42 50 45" stroke="currentColor" stroke-width="1.5" fill="none"/>
  <path d="M40 30 Q38 25 40 20 Q39 22 40 18 Q41 22 40 20 Q42 25 40 30" stroke="currentColor" stroke-width="1.5" fill="none"/>
  <path d="M33 32 Q31 28 33 25 Q32 26 33 24 Q34 26 33 25 Q34 28 33 32" stroke="currentColor" stroke-width="1.5" fill="none"/>
  <path d="M47 32 Q45 28 47 25 Q46 26 47 24 Q48 26 47 25 Q48 28 47 32" stroke="currentColor" stroke-width="1.5" fill="none"/>
  <ellipse cx="40" cy="35" rx="6" ry="4" stroke="currentColor" stroke-width="1.5" fill="none"/>
</svg>