<svg viewBox="0 0 80 80" xmlns="http://www.w3.org/2000/svg">
  <!-- Potter's Vessel -->
  <path d="M35 25 L35 22 Q35 18 40 18 Q45 18 45 22 L45 25" stroke="currentColor" stroke-width="1.5" fill="none"/>
  <path d="M35 25 Q32 28 32 32 L32 48 Q32 54 38 56 L42 56 Q48 54 48 48 L48 32 Q48 28 45 25" stroke="currentColor" stroke-width="1.5" fill="none"/>
  <ellipse cx="40" cy="56" rx="8" ry="3" stroke="currentColor" stroke-width="1.5" fill="none"/>
  <path d="M32 35 Q35 33 40 33 Q45 33 48 35" stroke="currentColor" stroke-width="1.5" fill="none"/>
  <path d="M32 42 Q35 40 40 40 Q45 40 48 42" stroke="currentColor" stroke-width="1.5" fill="none"/>
</svg>