<svg viewBox="0 0 80 80" xmlns="http://www.w3.org/2000/svg">
  <!-- Eagle -->
  <circle cx="40" cy="30" r="6" stroke="currentColor" stroke-width="1.5" fill="none"/>
  <path d="M40 36 L40 48" stroke="currentColor" stroke-width="1.5" fill="none" stroke-linecap="round"/>
  <path d="M20 32 Q18 28 20 24 Q24 26 28 28 L34 30" stroke="currentColor" stroke-width="1.5" fill="none"/>
  <path d="M20 32 Q22 36 26 40 L30 42 L35 40" stroke="currentColor" stroke-width="1.5" fill="none"/>
  <path d="M60 32 Q62 28 60 24 Q56 26 52 28 L46 30" stroke="currentColor" stroke-width="1.5" fill="none"/>
  <path d="M60 32 Q58 36 54 40 L50 42 L45 40" stroke="currentColor" stroke-width="1.5" fill="none"/>
  <path d="M38 48 L32 56 L35 58" stroke="currentColor" stroke-width="1.5" fill="none" stroke-linecap="round" stroke-linejoin="round"/>
  <path d="M42 48 L48 56 L45 58" stroke="currentColor" stroke-width="1.5" fill="none" stroke-linecap="round" stroke-linejoin="round"/>
  <path d="M35 52 L28 58 L30 60" stroke="currentColor" stroke-width="1.5" fill="none" stroke-linecap="round" stroke-linejoin="round"/>
  <path d="M45 52 L52 58 L50 60" stroke="currentColor" stroke-width="1.5" fill="none" stroke-linecap="round" stroke-linejoin="round"/>
  <path d="M42 30 Q43 27 42 24" stroke="currentColor" stroke-width="1.5" fill="none" stroke-linecap="round"/>
</svg>