<svg viewBox="0 0 80 80" xmlns="http://www.w3.org/2000/svg">
  <!-- Whale/Fish -->
  <path d="M15 40 Q15 30 25 28 L55 28 Q65 30 65 40 Q65 50 55 52 L25 52 Q15 50 15 40" stroke="currentColor" stroke-width="1.5" fill="none"/>
  <circle cx="58" cy="38" r="2" stroke="currentColor" stroke-width="1.5" fill="none"/>
  <path d="M65 35 L72 30 L68 40 L72 50 L65 45" stroke="currentColor" stroke-width="1.5" fill="none" stroke-linejoin="round"/>
  <path d="M15 35 Q10 32 8 35 Q10 38 15 35" stroke="currentColor" stroke-width="1.5" fill="none"/>
  <path d="M15 45 Q10 48 8 45 Q10 42 15 45" stroke="currentColor" stroke-width="1.5" fill="none"/>
  <path d="M30 40 Q35 38 40 40" stroke="currentColor" stroke-width="1.5" fill="none"/>
</svg>