<svg viewBox="0 0 80 80" xmlns="http://www.w3.org/2000/svg">
  <!-- Ox -->
  <ellipse cx="40" cy="38" rx="14" ry="12" stroke="currentColor" stroke-width="1.5" fill="none"/>
  <circle cx="40" cy="28" r="8" stroke="currentColor" stroke-width="1.5" fill="none"/>
  <path d="M32 24 Q30 22 28 24 L28 30 Q28 32 30 32" stroke="currentColor" stroke-width="1.5" fill="none"/>
  <path d="M48 24 Q50 22 52 24 L52 30 Q52 32 50 32" stroke="currentColor" stroke-width="1.5" fill="none"/>
  <circle cx="35" cy="28" r="1.5" stroke="currentColor" stroke-width="1.5" fill="none"/>
  <circle cx="45" cy="28" r="1.5" stroke="currentColor" stroke-width="1.5" fill="none"/>
  <ellipse cx="40" cy="32" rx="3" ry="2" stroke="currentColor" stroke-width="1.5" fill="none"/>
  <path d="M32 50 L32 60 L36 63" stroke="currentColor" stroke-width="1.5" fill="none" stroke-linecap="round" stroke-linejoin="round"/>
  <path d="M48 50 L48 60 L44 63" stroke="currentColor" stroke-width="1.5" fill="none" stroke-linecap="round" stroke-linejoin="round"/>
  <path d="M36 38 L30 42 L28 50" stroke="currentColor" stroke-width="1.5" fill="none" stroke-linecap="round" stroke-linejoin="round"/>
  <path d="M44 38 L50 42 L52 50" stroke="currentColor" stroke-width="1.5" fill="none" stroke-linecap="round" stroke-linejoin="round"/>
</svg>