<svg viewBox="0 0 80 80" xmlns="http://www.w3.org/2000/svg">
  <!-- Open scroll (large) -->
  <!-- Left roller -->
  <path d="M 22 30 L 22 50" stroke="currentColor" stroke-width="1.5" fill="none" stroke-linecap="round"/>
  <circle cx="22" cy="30" r="1.5" stroke="currentColor" stroke-width="1.5" fill="none"/>
  <circle cx="22" cy="50" r="1.5" stroke="currentColor" stroke-width="1.5" fill="none"/>
  <!-- Right roller -->
  <path d="M 58 30 L 58 50" stroke="currentColor" stroke-width="1.5" fill="none" stroke-linecap="round"/>
  <circle cx="58" cy="30" r="1.5" stroke="currentColor" stroke-width="1.5" fill="none"/>
  <circle cx="58" cy="50" r="1.5" stroke="currentColor" stroke-width="1.5" fill="none"/>
  <!-- Parchment -->
  <path d="M 22 32 Q 24 31 26 31 L 54 31 Q 56 31 58 32 L 58 48 Q 56 49 54 49 L 26 49 Q 24 49 22 48 Z" stroke="currentColor" stroke-width="1.5" fill="none"/>
  <!-- Text lines -->
  <line x1="28" y1="36" x2="52" y2="36" stroke="currentColor" stroke-width="0.5" opacity="0.5"/>
  <line x1="28" y1="40" x2="52" y2="40" stroke="currentColor" stroke-width="0.5" opacity="0.5"/>
  <line x1="28" y1="44" x2="52" y2="44" stroke="currentColor" stroke-width="0.5" opacity="0.5"/>
  <!-- Decorative rolled edges -->
  <path d="M 26 31 Q 24 32 22 32" stroke="currentColor" stroke-width="1" fill="none" opacity="0.6"/>
  <path d="M 54 31 Q 56 32 58 32" stroke="currentColor" stroke-width="1" fill="none" opacity="0.6"/>
  <path d="M 26 49 Q 24 48 22 48" stroke="currentColor" stroke-width="1" fill="none" opacity="0.6"/>
  <path d="M 54 49 Q 56 48 58 48" stroke="currentColor" stroke-width="1" fill="none" opacity="0.6"/>
</svg>
