<svg viewBox="0 0 80 80" xmlns="http://www.w3.org/2000/svg">
  <!-- Messenger/Angel Wings -->
  <circle cx="40" cy="35" r="6" stroke="currentColor" stroke-width="1.5" fill="none"/>
  <line x1="40" y1="41" x2="40" y2="55" stroke="currentColor" stroke-width="1.5" stroke-linecap="round"/>
  <path d="M20 35 Q18 30 20 25 Q25 28 30 30 L35 32" stroke="currentColor" stroke-width="1.5" fill="none"/>
  <path d="M20 35 Q22 40 25 43 L30 45 L35 42" stroke="currentColor" stroke-width="1.5" fill="none"/>
  <path d="M60 35 Q62 30 60 25 Q55 28 50 30 L45 32" stroke="currentColor" stroke-width="1.5" fill="none"/>
  <path d="M60 35 Q58 40 55 43 L50 45 L45 42" stroke="currentColor" stroke-width="1.5" fill="none"/>
  <path d="M35 55 L30 65 L35 63" stroke="currentColor" stroke-width="1.5" fill="none" stroke-linejoin="round"/>
  <path d="M45 55 L50 65 L45 63" stroke="currentColor" stroke-width="1.5" fill="none" stroke-linejoin="round"/>
</svg>