<svg viewBox="0 0 80 80" xmlns="http://www.w3.org/2000/svg">
  <!-- Lion -->
  <circle cx="40" cy="35" r="14" stroke="currentColor" stroke-width="1.5" fill="none"/>
  <path d="M28 28 Q25 25 23 27" stroke="currentColor" stroke-width="1.5" fill="none" stroke-linecap="round"/>
  <path d="M52 28 Q55 25 57 27" stroke="currentColor" stroke-width="1.5" fill="none" stroke-linecap="round"/>
  <circle cx="34" cy="34" r="2" stroke="currentColor" stroke-width="1.5" fill="none"/>
  <circle cx="46" cy="34" r="2" stroke="currentColor" stroke-width="1.5" fill="none"/>
  <path d="M34 40 L40 43 L46 40" stroke="currentColor" stroke-width="1.5" fill="none" stroke-linecap="round" stroke-linejoin="round"/>
  <path d="M26 42 Q23 45 23 48 L23 55" stroke="currentColor" stroke-width="1.5" fill="none" stroke-linecap="round"/>
  <path d="M54 42 Q57 45 57 48 L57 55" stroke="currentColor" stroke-width="1.5" fill="none" stroke-linecap="round"/>
  <path d="M28 48 L28 58 L33 63" stroke="currentColor" stroke-width="1.5" fill="none" stroke-linecap="round" stroke-linejoin="round"/>
  <path d="M52 48 L52 58 L47 63" stroke="currentColor" stroke-width="1.5" fill="none" stroke-linecap="round" stroke-linejoin="round"/>
  <path d="M30 22 Q32 20 34 22" stroke="currentColor" stroke-width="1.5" fill="none"/>
  <path d="M40 20 Q42 18 44 20" stroke="currentColor" stroke-width="1.5" fill="none"/>
  <path d="M50 22 Q52 20 54 22" stroke="currentColor" stroke-width="1.5" fill="none"/>
</svg>