<svg viewBox="0 0 80 80" xmlns="http://www.w3.org/2000/svg">
  <!-- Angel/Man (Traditional Symbol) -->
  <circle cx="40" cy="30" r="8" stroke="currentColor" stroke-width="1.5" fill="none"/>
  <path d="M40 38 L40 50" stroke="currentColor" stroke-width="1.5" fill="none" stroke-linecap="round"/>
  <path d="M40 43 L30 48" stroke="currentColor" stroke-width="1.5" fill="none" stroke-linecap="round"/>
  <path d="M40 43 L50 48" stroke="currentColor" stroke-width="1.5" fill="none" stroke-linecap="round"/>
  <path d="M25 25 Q23 20 25 15 Q28 18 30 20 L35 25" stroke="currentColor" stroke-width="1.5" fill="none"/>
  <path d="M25 25 Q27 30 30 33 L35 35" stroke="currentColor" stroke-width="1.5" fill="none"/>
  <path d="M55 25 Q57 20 55 15 Q52 18 50 20 L45 25" stroke="currentColor" stroke-width="1.5" fill="none"/>
  <path d="M55 25 Q53 30 50 33 L45 35" stroke="currentColor" stroke-width="1.5" fill="none"/>
  <path d="M36 50 L32 62 L36 60" stroke="currentColor" stroke-width="1.5" fill="none" stroke-linejoin="round"/>
  <path d="M44 50 L48 62 L44 60" stroke="currentColor" stroke-width="1.5" fill="none" stroke-linejoin="round"/>
</svg>