<svg viewBox="0 0 80 80" xmlns="http://www.w3.org/2000/svg">
  <!-- Flooding Waters -->
  <path d="M10 35 Q15 32 20 35 Q25 38 30 35 Q35 32 40 35 Q45 38 50 35 Q55 32 60 35 Q65 38 70 35" stroke="currentColor" stroke-width="1.5" fill="none"/>
  <path d="M10 45 Q15 42 20 45 Q25 48 30 45 Q35 42 40 45 Q45 48 50 45 Q55 42 60 45 Q65 48 70 45" stroke="currentColor" stroke-width="1.5" fill="none"/>
  <path d="M10 55 Q15 52 20 55 Q25 58 30 55 Q35 52 40 55 Q45 58 50 55 Q55 52 60 55 Q65 58 70 55" stroke="currentColor" stroke-width="1.5" fill="none"/>
  <path d="M15 30 L15 25" stroke="currentColor" stroke-width="1.5" fill="none" stroke-linecap="round"/>
  <path d="M30 28 L30 22" stroke="currentColor" stroke-width="1.5" fill="none" stroke-linecap="round"/>
  <path d="M50 30 L50 24" stroke="currentColor" stroke-width="1.5" fill="none" stroke-linecap="round"/>
  <path d="M65 28 L65 23" stroke="currentColor" stroke-width="1.5" fill="none" stroke-linecap="round"/>
</svg>