<svg viewBox="0 0 80 80" xmlns="http://www.w3.org/2000/svg">
  <!-- Twelve Stars (Tribes) -->
  <path d="M40 15 L42 21 L48 21 L43 25 L45 31 L40 27 L35 31 L37 25 L32 21 L38 21 Z" stroke="currentColor" stroke-width="1.5" fill="none"/>
  <path d="M20 25 L22 29 L26 29 L23 32 L24 36 L20 33 L16 36 L17 32 L14 29 L18 29 Z" stroke="currentColor" stroke-width="1.5" fill="none"/>
  <path d="M60 25 L62 29 L66 29 L63 32 L64 36 L60 33 L56 36 L57 32 L54 29 L58 29 Z" stroke="currentColor" stroke-width="1.5" fill="none"/>
  <path d="M15 45 L17 49 L21 49 L18 52 L19 56 L15 53 L11 56 L12 52 L9 49 L13 49 Z" stroke="currentColor" stroke-width="1.5" fill="none"/>
  <path d="M65 45 L67 49 L71 49 L68 52 L69 56 L65 53 L61 56 L62 52 L59 49 L63 49 Z" stroke="currentColor" stroke-width="1.5" fill="none"/>
  <path d="M25 60 L27 64 L31 64 L28 67 L29 71 L25 68 L21 71 L22 67 L19 64 L23 64 Z" stroke="currentColor" stroke-width="1.5" fill="none"/>
  <path d="M55 60 L57 64 L61 64 L58 67 L59 71 L55 68 L51 71 L52 67 L49 64 L53 64 Z" stroke="currentColor" stroke-width="1.5" fill="none"/>
  <path d="M30 38 L32 42 L36 42 L33 45 L34 49 L30 46 L26 49 L27 45 L24 42 L28 42 Z" stroke="currentColor" stroke-width="1.5" fill="none"/>
  <path d="M50 38 L52 42 L56 42 L53 45 L54 49 L50 46 L46 49 L47 45 L44 42 L48 42 Z" stroke="currentColor" stroke-width="1.5" fill="none"/>
  <path d="M40 52 L42 56 L46 56 L43 59 L44 63 L40 60 L36 63 L37 59 L34 56 L38 56 Z" stroke="currentColor" stroke-width="1.5" fill="none"/>
  <path d="M10 38 L12 42 L16 42 L13 45 L14 49 L10 46 L6 49 L7 45 L4 42 L8 42 Z" stroke="currentColor" stroke-width="1.5" fill="none"/>
  <path d="M70 38 L72 42 L76 42 L73 45 L74 49 L70 46 L66 49 L67 45 L64 42 L68 42 Z" stroke="currentColor" stroke-width="1.5" fill="none"/>
</svg>