<svg viewBox="0 0 80 80" xmlns="http://www.w3.org/2000/svg">
  <!-- Rose/Lily -->
  <path d="M40 60 L40 35" stroke="currentColor" stroke-width="1.5" fill="none" stroke-linecap="round"/>
  <path d="M35 45 L32 48" stroke="currentColor" stroke-width="1.5" fill="none" stroke-linecap="round"/>
  <path d="M45 45 L48 48" stroke="currentColor" stroke-width="1.5" fill="none" stroke-linecap="round"/>
  <ellipse cx="32" cy="50" rx="3" ry="5" stroke="currentColor" stroke-width="1.5" fill="none"/>
  <ellipse cx="48" cy="50" rx="3" ry="5" stroke="currentColor" stroke-width="1.5" fill="none"/>
  <path d="M35 25 Q30 22 32 18 Q35 22 40 22 Q45 22 48 18 Q50 22 45 25" stroke="currentColor" stroke-width="1.5" fill="none"/>
  <path d="M32 25 Q28 28 30 32 Q34 30 40 30 Q46 30 50 32 Q52 28 48 25" stroke="currentColor" stroke-width="1.5" fill="none"/>
  <path d="M30 32 Q28 36 32 38 Q36 36 40 36 Q44 36 48 38 Q52 36 50 32" stroke="currentColor" stroke-width="1.5" fill="none"/>
</svg>