<svg viewBox="0 0 80 80" xmlns="http://www.w3.org/2000/svg">
  <!-- Olive Branches and Lampstand -->
  <rect x="37" y="35" width="6" height="20" stroke="currentColor" stroke-width="1.5" fill="none"/>
  <circle cx="40" cy="32" r="3" stroke="currentColor" stroke-width="1.5" fill="none"/>
  <path d="M40 29 Q38 24 40 20 Q39 22 40 18 Q41 22 40 20 Q42 24 40 29" stroke="currentColor" stroke-width="1.5" fill="none"/>
  <ellipse cx="40" cy="55" rx="8" ry="2.5" stroke="currentColor" stroke-width="1.5" fill="none"/>
  <path d="M25 30 L25 45" stroke="currentColor" stroke-width="1.5" fill="none" stroke-linecap="round"/>
  <ellipse cx="22" cy="28" rx="2" ry="3" stroke="currentColor" stroke-width="1.5" fill="none"/>
  <ellipse cx="25" cy="25" rx="2" ry="3" stroke="currentColor" stroke-width="1.5" fill="none"/>
  <ellipse cx="28" cy="28" rx="2" ry="3" stroke="currentColor" stroke-width="1.5" fill="none"/>
  <path d="M55 30 L55 45" stroke="currentColor" stroke-width="1.5" fill="none" stroke-linecap="round"/>
  <ellipse cx="52" cy="28" rx="2" ry="3" stroke="currentColor" stroke-width="1.5" fill="none"/>
  <ellipse cx="55" cy="25" rx="2" ry="3" stroke="currentColor" stroke-width="1.5" fill="none"/>
  <ellipse cx="58" cy="28" rx="2" ry="3" stroke="currentColor" stroke-width="1.5" fill="none"/>
</svg>