<svg xmlns="http://www.w3.org/2000/svg" viewBox="0 0 512 512">
  <defs>
    <!-- Rich gradient for depth -->
    <linearGradient id="bg" x1="0%" y1="0%" x2="100%" y2="100%">
      <stop offset="0%" style="stop-color:#9A6B3D;stop-opacity:1" />
      <stop offset="100%" style="stop-color:#6B4423;stop-opacity:1" />
    </linearGradient>

    <!-- Gold gradient for text -->
    <linearGradient id="gold" x1="0%" y1="0%" x2="0%" y2="100%">
      <stop offset="0%" style="stop-color:#F5E6D3;stop-opacity:1" />
      <stop offset="50%" style="stop-color:#D4B896;stop-opacity:1" />
      <stop offset="100%" style="stop-color:#C9A86C;stop-opacity:1" />
    </linearGradient>

    <!-- Shadow for depth -->
    <filter id="shadow">
      <feGaussianBlur in="SourceAlpha" stdDeviation="3"/>
      <feOffset dx="0" dy="2" result="offsetblur"/>
      <feComponentTransfer>
        <feFuncA type="linear" slope="0.3"/>
      </feComponentTransfer>
      <feMerge>
        <feMergeNode/>
        <feMergeNode in="SourceGraphic"/>
      </feMerge>
    </filter>
  </defs>

  <!-- Background with rounded corners for modern look -->
  <rect width="512" height="512" rx="110" fill="url(#bg)"/>

  <!-- Subtle border for definition -->
  <rect width="512" height="512" rx="110" fill="none" stroke="#523A1F" stroke-width="8" opacity="0.4"/>

  <!-- Central design: 道 (dào) character stylized with cross -->
  <g filter="url(#shadow)">
    <!-- 道 character - bold, simplified, elegant strokes -->
    <!-- Top component - 首 (head) simplified -->
    <path d="M 220 120 L 292 120 Q 300 120 300 128 L 300 155 Q 300 163 292 163 L 220 163 Q 212 163 212 155 L 212 128 Q 212 120 220 120 Z"
          fill="url(#gold)"/>

    <!-- Vertical center stroke - represents both 道 and the cross -->
    <rect x="236" y="155" width="40" height="250" rx="6" fill="url(#gold)"/>

    <!-- Horizontal cross beam - dual symbolism: Chinese character + Christian cross -->
    <rect x="170" y="220" width="172" height="36" rx="6" fill="url(#gold)"/>

    <!-- Decorative horizontal strokes - 道 character details -->
    <rect x="190" y="178" width="132" height="18" rx="4" fill="url(#gold)" opacity="0.9"/>

    <!-- Bottom base stroke - grounds the character -->
    <rect x="160" y="375" width="192" height="30" rx="5" fill="url(#gold)"/>

    <!-- Diagonal accent stroke - characteristic of 道, adds dynamism -->
    <path d="M 310 270 L 360 340 Q 364 346 358 350 L 345 360 Q 339 364 335 358 L 285 288 Q 281 282 287 278 L 300 268 Q 306 264 310 270 Z"
          fill="url(#gold)" opacity="0.95"/>
  </g>

  <!-- Subtle highlight on left edge for depth -->
  <rect x="8" y="110" width="3" height="292" rx="1.5" fill="#F5E6D3" opacity="0.15"/>
</svg>
